<?xml version="1.0" encoding="UTF-8" standalone="no"?>
<svg
   xmlns:dc="http://purl.org/dc/elements/1.1/"
   xmlns:cc="http://creativecommons.org/ns#"
   xmlns:rdf="http://www.w3.org/1999/02/22-rdf-syntax-ns#"
   xmlns:svg="http://www.w3.org/2000/svg"
   xmlns="http://www.w3.org/2000/svg"
   viewBox="0 0 3152 2538.6667"
   height="2538.6667"
   width="3152"
   xml:space="preserve"
   id="svg2"
   version="1.1"><metadata
     id="metadata8"><rdf:RDF><cc:Work
         rdf:about=""><dc:format>image/svg+xml</dc:format><dc:type
           rdf:resource="http://purl.org/dc/dcmitype/StillImage" /></cc:Work></rdf:RDF></metadata><defs
     id="defs6" /><g
     transform="matrix(1.3333333,0,0,-1.3333333,0,2538.6667)"
     id="g10"><g
       transform="scale(0.1)"
       id="g12"><g
         transform="scale(1.43027)"
         id="g14"><path
           id="path16"
           style="fill:#cc4286;fill-opacity:1;fill-rule:nonzero;stroke:none"
           d="m 15023.3,8902.55 c -145,393.63 879.9,1280.55 507.1,2005.55 -372.9,725 -1388,642.2 -1388,642.2 -1814.6,16.7 -3819.9,-1710.76 -4512.82,-2364.04 -212.13,225.48 -481.1,259.87 -728.11,161.08 -276.24,-110.48 -552.42,-248.59 -552.42,-248.59 0,0 -276.17,138.11 -552.34,248.59 -276.24,110.48 -580.1,55.16 -801.04,-248.59 -1.05,-1.47 -1.96,-3.49 -3,-5.03 -581.15,561.74 -2700.86,2474.18 -4609.84,2456.58 0,0 -1015.05,82.8 -1387.905,-642.2 -372.856,-725 652.005,-1611.92 507.025,-2005.55 -132.07,-358.62 -1276.714,-1870.82 -266.08,-3250.89 0,-0.07 0,-0.07 0,-0.07 121.18,-230.03 118.22,-177.03 359.77,-398.8 356.1,-327.08 1102.47,-401.47 1955.21,-319.38 -636.52,-378.75 -936.26,-667.85 -898.68,-799.29 82.81,-290.02 1387.94,-828.59 1387.94,-828.59 0,0 408.49,-1004.43 508.69,-1294.51 100.07,-289.95 364.69,-249.81 364.69,-249.81 1024.77,1316.6 2390.86,3927.23 2631.8,4392.94 333.99,-245.06 803.76,-197.09 803.76,-197.09 0,0 358.82,-36.71 672.25,117.6 327.07,-628.56 1613.8,-3058.66 2590.5,-4313.45 0,0 264.6,-40.14 364.7,249.81 100.2,290.08 508.6,1294.51 508.6,1294.51 0,0 1305.1,538.57 1388,828.59 37.6,131.44 -262.2,420.54 -898.6,799.29 852.7,-82.09 1599,-7.7 1955.1,319.38 241.7,221.77 238.6,168.77 359.8,398.8 v 0.07 c 1010.6,1380.09 -133.9,2892.27 -266.1,3250.89" /></g><g
         transform="scale(1.02076)"
         id="g18"><path
           id="path20"
           style="fill:#ea619d;fill-opacity:1;fill-rule:nonzero;stroke:none"
           d="m 6207.33,10600.5 c -530.78,-74 -1027.38,-171 -1422.72,-294.7 -91.82,-28.7 -189.47,22.5 -218.21,114.3 -28.67,91.8 22.5,189.4 114.3,218.2 424.35,132.4 935.81,231.3 1478.49,307.1 542.48,75.6 1115.66,127.7 1659.21,163.7 755.11,50 1452.62,68.8 1929.51,75.7 -29.31,244.3 -49.55,480.8 -57.47,694.2 -331.94,187.6 -724.99,373.9 -1144.44,551.2 -566.8,239.7 -1181.49,463.8 -1761.06,659 -1159.21,390.5 -2177.79,665.5 -2399.62,724.3 -29.63,7.8 -44.7,11.8 -44.78,11.8 -93.07,24.1 -148.94,119.2 -124.79,212.3 24.15,93.1 119.28,149 212.35,124.8 1.64,-0.4 569.77,-147.9 1370.26,-391.7 800.67,-243.9 1833.38,-583.9 2767.11,-971.1 402.89,-167.2 786.37,-342.8 1127.03,-524.7 12.17,214 45.39,378.9 105.46,467 -814.29,787.1 -3784.38,3466.8 -6459.19,3442.1 0,0 -1422.27,116 -1944.7,-899.8 C 871.629,14268.3 2307.64,13025.6 2104.5,12474 1919.45,11971.6 315.596,9852.7 1731.67,7918.97 1956.41,9764.33 7884.11,9574.9 10083.3,9467.6 c -110.76,381.35 -214.6,877 -288.43,1369.6 -803.85,-10.8 -2296.38,-56.5 -3587.54,-236.7" /></g><g
         transform="scale(1.43027)"
         id="g22"><path
           id="path24"
           style="fill:#ea619d;fill-opacity:1;fill-rule:nonzero;stroke:none"
           d="m 15023.3,8902.55 c -145,393.63 879.9,1280.55 507.1,2005.55 -372.9,725 -1388,642.2 -1388,642.2 -1814.6,16.7 -3819.9,-1710.76 -4512.82,-2364.04 25.03,-26.66 49.5,-55.42 72.85,-87.51 51.81,-71.2 76.56,-219.99 81.32,-413.03 274.55,156.5 597.65,307.12 940.05,449.19 444.2,184.22 919.8,353.41 1356.9,497.4 874.1,287.83 1594.3,474.79 1595.8,475.19 h 0.1 c 66.4,17.3 134.2,-22.6 151.5,-89.1 17.3,-66.42 -22.7,-134.26 -89.1,-151.49 -0.1,0 -6,-1.56 -18,-4.72 -12,-3.18 -29.9,-7.9 -53,-14.13 -46.4,-12.42 -114.3,-30.86 -200,-54.7 -171.3,-47.63 -413.6,-116.92 -697,-203.23 -566.7,-172.57 -1297.9,-413.48 -1952.1,-684.85 -393.2,-162.94 -758,-337.43 -1040.61,-511.73 -7.13,-128.83 -19.85,-267.32 -36.84,-409.51 544.35,-5.02 1696.55,-32.74 2699.55,-172.47 387.3,-54.11 752.4,-124.67 1055.2,-219.2 65.5,-20.51 102,-90.21 81.5,-155.73 -20.4,-65.52 -90.1,-102.03 -155.7,-81.55 -282.1,88.27 -636.5,157.5 -1015.3,210.3 -378.9,52.81 -782.7,89.58 -1166.2,114.98 -630.5,41.73 -1206.2,52.79 -1532.61,55.41 -52.09,-348.57 -125.43,-699.22 -203.74,-970.67 1686.95,76.09 5630.45,157.18 5785.25,-1113.45 1010.6,1380.09 -133.9,2892.27 -266.1,3250.89" /></g><path
         id="path26"
         style="fill:#dd5399;fill-opacity:1;fill-rule:nonzero;stroke:none"
         d="M 9887.85,8786.9 C 6133.98,7011.9 2015.63,7275.8 2637.77,8342.5 c 575.9,987.11 6812.03,1060.55 7736.53,1065.98 -27.3,77.89 -54.7,162.97 -81.6,255.7 -2244.89,109.53 -8295.67,302.89 -8525.08,-1580.78 0,-0.1 0,-0.1 0,-0.1 173.32,-329 169.1,-253.2 514.57,-570.4 509.33,-467.8 1576.83,-574.2 2796.48,-456.8 2082.58,200.5 4608.79,1054 5561.03,1880 -83.3,88.6 -155.1,195.62 -209.2,324.56 -70.7,-130.39 -222.3,-322.26 -542.65,-473.76" /><g
         transform="scale(1.3416)"
         id="g28"><path
           id="path30"
           style="fill:#dd5399;fill-opacity:1;fill-rule:nonzero;stroke:none"
           d="m 10132.3,7212.27 c -21.1,-73.03 -42.4,-140.14 -63.8,-200.97 1095.2,-12.52 5181.6,-105.25 5582.9,-792.96 463.7,-795.09 -2606,-991.8 -5404,331.25 -136.7,64.55 -231.5,139.02 -298.12,209.16 -47.56,-70.29 -103.39,-129.03 -164.29,-177.55 773.31,-589.97 2561.61,-1178.75 4047.01,-1321.71 909.1,-87.51 1704.8,-8.2 2084.4,340.49 257.6,236.43 254.4,179.93 383.6,425.16 v 0.07 c -165,1354.62 -4369.2,1268.18 -6167.7,1187.06" /></g><path
         id="path32"
         style="fill:#ac336d;fill-opacity:1;fill-rule:nonzero;stroke:none"
         d="m 10374.3,9408.48 c -924.5,-5.43 -7160.63,-78.87 -7736.53,-1065.98 -622.14,-1066.7 3496.21,-1330.6 7250.08,444.4 320.35,151.5 471.95,343.37 542.65,473.76 -1.4,3.21 -2.9,6.14 -4.2,9.42 -17.3,42.22 -34.7,89.18 -52,138.4" /><g
         transform="scale(1.32638)"
         id="g34"><path
           id="path36"
           style="fill:#ac336d;fill-opacity:1;fill-rule:nonzero;stroke:none"
           d="m 15830.9,6289.67 c -405.8,695.6 -4539.1,789.39 -5646.9,802.06 -12.9,-36.52 -25.8,-71.39 -38.6,-102.72 -23,-56.41 -50.9,-106.88 -82,-152.74 67.4,-70.94 163.3,-146.26 301.5,-211.55 2830.1,-1338.23 5935.1,-1139.26 5466,-335.05" /></g><path
         id="path38"
         style="fill:#f575a9;fill-opacity:1;fill-rule:nonzero;stroke:none"
         d="m 13347.9,9067.5 c 41.2,60.82 78.2,127.77 108.7,202.58 17.1,41.56 34.2,87.81 51.2,136.25 28.7,81.6 57.4,171.64 85.7,269.61 112,388.26 216.9,889.76 291.4,1388.36 17.8,119.1 34,237.9 48,355 24.3,203.4 42.5,401.5 52.7,585.7 8.3,150.2 10.9,290.5 7.8,417.9 -6.8,276.1 -42.2,488.9 -116.3,590.8 -33.4,45.9 -68.4,87 -104.2,125.1 -303.4,322.5 -688.1,371.7 -1041.4,230.4 -395.1,-158 -790.1,-355.5 -790.1,-355.5 0,0 -395,197.5 -790,355.5 -395.1,158 -829.7,78.9 -1145.7,-355.5 -1.5,-2.1 -2.8,-5 -4.3,-7.2 -61.32,-90 -95.23,-258.3 -107.65,-476.7 -6.87,-121.1 -7.54,-256.8 -2.11,-404.1 8.09,-217.9 28.75,-459.3 58.67,-708.7 14.03,-117 30.12,-235.8 47.93,-354.8 75.36,-502.8 181.36,-1008.8 294.46,-1398.02 26.9,-92.73 54.3,-177.81 81.6,-255.7 17.3,-49.22 34.7,-96.18 52,-138.4 1.3,-3.28 2.8,-6.21 4.2,-9.42 54.1,-128.94 125.9,-235.96 209.2,-324.56 47.4,-50.5 98.5,-94.7 152.1,-134 477.7,-350.5 1149.6,-281.9 1149.6,-281.9 0,0 513.2,-52.5 961.5,168.2 77.8,38.2 153.7,84.4 224.6,140.9 81.7,65.1 156.6,143.9 220.4,238.2" /></g></g></svg>